<?xml version="1.0" encoding="UTF-8" standalone="no"?>
<svg
   version="1.1"
   viewBox="0 0 174.688 174.662"
   fill="#000000"
   data-color-origin="#000000"
   data-color-type="fill"
   id="svg4"
   width="174.688"
   height="174.662"
   xmlns="http://www.w3.org/2000/svg"
   xmlns:svg="http://www.w3.org/2000/svg">
  <defs
     id="defs4">
    <linearGradient
       id="1ef4d823-01ed-4ba6-bb23-5e04f888c694b"
       x1="12299.405"
       x2="12401.861"
       y1="9835.0332"
       y2="9937.4893"
       gradientTransform="scale(1.0001,0.9999)"
       gradientUnits="userSpaceOnUse">
      <stop
         offset="0"
         stop-color="#ffa701"
         class=" bl-stopColor-0"
         data-color-origin="#ffa701"
         data-color-type="stopColor"
         id="stop1" />
      <stop
         offset=".507"
         stop-color="#ff5e01"
         class=" bl-stopColor-1"
         data-color-origin="#ff5e01"
         data-color-type="stopColor"
         id="stop2" />
      <stop
         offset="1"
         stop-color="#ff4501"
         class=" bl-stopColor-2"
         data-color-origin="#ff4501"
         data-color-type="stopColor"
         id="stop3" />
    </linearGradient>
    <filter
       id="1ef4d823-01ed-4ba6-bb23-5e04f888c694a"
       width="174.688"
       height="174.662"
       x="0"
       y="0"
       filterUnits="userSpaceOnUse">
      <feOffset
         dx="4"
         dy="4"
         input="SourceAlpha"
         id="feOffset3" />
      <feGaussianBlur
         result="blur"
         stdDeviation="4"
         id="feGaussianBlur3" />
      <feFlood
         flood-opacity=".4"
         id="feFlood3" />
      <feComposite
         in2="blur"
         operator="in"
         id="feComposite3" />
      <feComposite
         in="SourceGraphic"
         id="feComposite4" />
    </filter>
  </defs>
  <g
     filter="url(#1ef4d823-01ed-4ba6-bb23-5e04f888c694a)"
     id="g4">
    <path
       fill="url(#1ef4d823-01ed-4ba6-bb23-5e04f888c694b)"
       d="m 12336.8,9958.99 v 0 c -0.826,-0.168 -2.5,-0.555 -2.506,-0.562 0,-0.01 -1.039,-0.258 -2.3,-0.584 3.549,-2.957 7.057,-6.062 10.432,-9.23 3.375,-3.168 6.689,-6.473 9.871,-9.832 3.182,-3.359 6.3,-6.852 9.281,-10.395 2.981,-3.543 5.893,-7.215 8.66,-10.928 2.767,-3.713 5.473,-7.568 8.023,-11.443 2.55,-3.875 5.023,-7.9 7.346,-11.922 2.33,-4.043 4.566,-8.2 6.646,-12.373 2.09,-4.187 4.086,-8.5 5.926,-12.8 5.006,2.3 10,4.826 14.836,7.49 4.836,2.664 9.654,5.559 14.295,8.576 v 0.205 a 76.081,76.081 0 0 1 -1.529,15.182 75.306,75.306 0 0 1 -58.615,58.615 76.035,76.035 0 0 1 -30.365,0 z m -14.148,-4.389 a 75.336,75.336 0 0 1 -36.607,-105.881 c 5.553,-0.4 11.205,-0.6 16.791,-0.6 5.678,0 11.408,0.211 17.043,0.627 5.57,0.41 11.191,1.035 16.707,1.85 0.742,0.115 1.5,0.23 2.236,0.35 -2.207,6.2 -4.178,12.561 -5.854,18.924 -1.693,6.432 -3.127,13.018 -4.268,19.574 -1.154,6.637 -2.035,13.41 -2.615,20.137 -0.59,6.816 -0.891,13.758 -0.891,20.635 a 240.046,240.046 0 0 0 1.4,25.916 v 0.01 c -1.324,-0.475 -2.656,-0.993 -3.951,-1.543 z m 10.336,-10.166 c -0.283,-4.707 -0.436,-9.492 -0.436,-14.223 0,-6.764 0.3,-13.6 0.893,-20.3 0.584,-6.623 1.471,-13.287 2.627,-19.816 1.146,-6.447 2.592,-12.926 4.287,-19.248 1.68,-6.25 3.652,-12.51 5.869,-18.6 l 2.508,-7.027 c -4.123,-0.809 -8.293,-1.52 -12.445,-2.1 -5.467,-0.777 -11.041,-1.369 -16.568,-1.754 -5.58,-0.4 -11.264,-0.6 -16.887,-0.6 -3.959,0 -7.967,0.1 -11.914,0.295 a 75.434,75.434 0 0 1 75.121,-29.881 75.35,75.35 0 0 1 60.684,64.623 236.476,236.476 0 0 0 -32.424,-16.687 l -2.924,6.816 a 229.028,229.028 0 0 1 -24.775,43.879 231.205,231.205 0 0 1 -33.49,37.209 c -0.06,-1.259 -0.1,-2.126 -0.129,-2.585 z"
       data-name="Path 1812"
       transform="translate(-12268.62,-9801.86)"
       id="path4"
       style="fill:url(#1ef4d823-01ed-4ba6-bb23-5e04f888c694b)" />
  </g>
</svg>
